<svg width="current" height="current" viewBox="0 0 16 16" fill="none" xmlns="http://www.w3.org/2000/svg">
<path d="M5.3335 1.33331L6.58683 2.58665" stroke="currentColor" stroke-width="1.33333" stroke-linecap="round" stroke-linejoin="round"/>
<path d="M9.41357 2.58665L10.6669 1.33331" stroke="currentColor" stroke-width="1.33333" stroke-linecap="round" stroke-linejoin="round"/>
<path d="M6.00005 4.75331V4.08664C5.98796 3.81647 6.03074 3.54666 6.1258 3.29348C6.22086 3.0403 6.36623 2.809 6.55313 2.61354C6.74004 2.41809 6.96461 2.26253 7.21329 2.15625C7.46197 2.04997 7.72961 1.99518 8.00005 1.99518C8.27049 1.99518 8.53812 2.04997 8.7868 2.15625C9.03548 2.26253 9.26005 2.41809 9.44696 2.61354C9.63387 2.809 9.77924 3.0403 9.8743 3.29348C9.96935 3.54666 10.0121 3.81647 10 4.08664V4.75331" stroke="currentColor" stroke-width="1.33333" stroke-linecap="round" stroke-linejoin="round"/>
<path d="M8 13.3334C5.8 13.3334 4 11.5334 4 9.33335V7.33335C4 6.62611 4.28095 5.94783 4.78105 5.44774C5.28115 4.94764 5.95942 4.66669 6.66667 4.66669H9.33333C10.0406 4.66669 10.7189 4.94764 11.219 5.44774C11.719 5.94783 12 6.62611 12 7.33335V9.33335C12 11.5334 10.2 13.3334 8 13.3334Z" stroke="currentColor" stroke-width="1.33333" stroke-linecap="round" stroke-linejoin="round"/>
<path d="M8 13.3333V7.33331" stroke="currentColor" stroke-width="1.33333" stroke-linecap="round" stroke-linejoin="round"/>
<path d="M4.35333 5.99998C3.06667 5.86665 2 4.73331 2 3.33331" stroke="currentColor" stroke-width="1.33333" stroke-linecap="round" stroke-linejoin="round"/>
<path d="M4.00016 8.66669H1.3335" stroke="currentColor" stroke-width="1.33333" stroke-linecap="round" stroke-linejoin="round"/>
<path d="M2 14C2 12.6 3.13333 11.4 4.53333 11.3333" stroke="currentColor" stroke-width="1.33333" stroke-linecap="round" stroke-linejoin="round"/>
<path d="M13.9798 3.33331C13.9798 4.73331 12.9132 5.86665 11.6465 5.99998" stroke="currentColor" stroke-width="1.33333" stroke-linecap="round" stroke-linejoin="round"/>
<path d="M14.6667 8.66669H12" stroke="currentColor" stroke-width="1.33333" stroke-linecap="round" stroke-linejoin="round"/>
<path d="M11.4668 11.3333C12.8668 11.4 14.0001 12.6 14.0001 14" stroke="currentColor" stroke-width="1.33333" stroke-linecap="round" stroke-linejoin="round"/>
</svg>
