<svg width="17" height="17" viewBox="0 0 17 17" fill="none" xmlns="http://www.w3.org/2000/svg">
<path d="M10.4992 15.1667V12.5C10.592 11.6649 10.3525 10.8268 9.83254 10.1667C11.8325 10.1667 13.8325 8.83337 13.8325 6.50004C13.8859 5.66671 13.6525 4.84671 13.1659 4.16671C13.3525 3.40004 13.3525 2.60004 13.1659 1.83337C13.1659 1.83337 12.4992 1.83337 11.1659 2.83337C9.40588 2.50004 7.59254 2.50004 5.83254 2.83337C4.49921 1.83337 3.83254 1.83337 3.83254 1.83337C3.63254 2.60004 3.63254 3.40004 3.83254 4.16671C3.34713 4.84396 3.11153 5.66857 3.16588 6.50004C3.16588 8.83337 5.16588 10.1667 7.16588 10.1667C6.90588 10.4934 6.71254 10.8667 6.59921 11.2667C6.48588 11.6667 6.45254 12.0867 6.49921 12.5V15.1667" stroke="#9CA3AF" stroke-width="1.33333" stroke-linecap="round" stroke-linejoin="round"/>
<path d="M6.50065 12.5C3.49398 13.8333 3.16732 11.1666 1.83398 11.1666" stroke="#9CA3AF" stroke-width="1.33333" stroke-linecap="round" stroke-linejoin="round"/>
</svg>
