<svg width="16" height="16" viewBox="0 0 16 16" fill="none" xmlns="http://www.w3.org/2000/svg">
<path d="M13.3337 6.66707C13.3337 10.6671 8.00033 14.6671 8.00033 14.6671C8.00033 14.6671 2.66699 10.6671 2.66699 6.66707C2.66699 5.25259 3.2289 3.89603 4.22909 2.89584C5.22928 1.89564 6.58584 1.33374 8.00033 1.33374C9.41481 1.33374 10.7714 1.89564 11.7716 2.89584C12.7718 3.89603 13.3337 5.25259 13.3337 6.66707Z" stroke="#4B5563" stroke-width="1.33333" stroke-linecap="round" stroke-linejoin="round"/>
<path d="M8 8.66724C9.10457 8.66724 10 7.77181 10 6.66724C10 5.56267 9.10457 4.66724 8 4.66724C6.89543 4.66724 6 5.56267 6 6.66724C6 7.77181 6.89543 8.66724 8 8.66724Z" stroke="#4B5563" stroke-width="1.33333" stroke-linecap="round" stroke-linejoin="round"/>
</svg>
