<svg width="100%" height="100%" viewBox="0 0 64 64" fill="none" xmlns="http://www.w3.org/2000/svg">
<path d="M50.6667 29.3333H13.3333C10.3878 29.3333 8 31.7211 8 34.6666V53.3333C8 56.2788 10.3878 58.6666 13.3333 58.6666H50.6667C53.6122 58.6666 56 56.2788 56 53.3333V34.6666C56 31.7211 53.6122 29.3333 50.6667 29.3333Z" stroke="#9E0101" stroke-width="5.33333" stroke-linecap="round" stroke-linejoin="round"/>
<path d="M18.6665 29.3333V18.6666C18.6665 15.1304 20.0713 11.739 22.5717 9.23856C25.0722 6.73807 28.4636 5.33331 31.9998 5.33331C35.5361 5.33331 38.9274 6.73807 41.4279 9.23856C43.9284 11.739 45.3332 15.1304 45.3332 18.6666V29.3333" stroke="#9E0101" stroke-width="5.33333" stroke-linecap="round" stroke-linejoin="round"/>
</svg>
