<svg width="100%" height="100%" viewBox="0 0 220 300" fill="none" xmlns="http://www.w3.org/2000/svg">
<path d="M58.182 24.3014C64.1547 20.954 71.4361 24.0706 73.0013 30.8742C73.3509 32.3938 72.8798 34.0967 72.8375 35.7165C72.8257 36.1697 72.8352 36.7891 73.1063 37.0596C78.2875 42.2294 83.5033 47.3646 88.7425 52.4756C88.9766 52.7039 89.5392 52.7782 89.882 52.683C93.6701 51.6317 97.4059 50.3543 101.238 49.5107C103.685 48.9719 106.265 48.9937 108.791 48.8724C115.956 48.5285 122.871 49.7541 129.624 52.3762C133.452 48.5442 137.281 44.6907 141.136 40.8642C142.411 39.5988 143.75 38.3976 145.071 37.1786C145.529 36.7556 145.626 36.4177 145.455 35.6999C144.081 29.9585 146.783 24.3937 153.039 23.1437C158.866 21.9795 163.672 25.3124 164.795 30.906C165.917 36.4922 162.732 41.368 157.039 42.6916C155.437 43.0639 153.604 42.5369 151.894 42.2988C151.181 42.1994 150.7 42.1109 150.096 42.7269C145.788 47.122 141.416 51.4555 137.075 55.7986C138.918 57.1453 140.864 58.3225 142.512 59.8275C145.2 62.2826 147.896 64.7818 150.218 67.5719C153.331 71.313 155.499 75.6554 157.041 80.3009C158.784 85.5499 159.005 90.9554 158.777 96.402C158.721 97.7373 158.264 99.0518 158.113 100.39C158.075 100.732 158.433 101.376 158.728 101.459C164.001 102.952 169.297 104.365 174.579 105.825C179.155 107.089 183.724 108.379 188.29 109.682C190.628 110.349 193.036 110.922 195.003 112.43C196.969 113.938 198.257 115.891 198.257 118.513C198.251 147.96 198.272 177.408 198.231 206.855C198.226 210.896 197.311 214.83 196.13 218.686C194.233 224.881 191.429 230.649 187.612 235.876C185.429 238.866 183.044 241.715 180.653 244.545C179.169 246.302 177.635 248.061 175.892 249.545C171.213 253.529 166.547 257.549 161.622 261.214C155.347 265.882 148.577 269.8 141.644 273.439C135.129 276.858 128.475 279.946 121.591 282.529C118.026 283.867 114.432 285.127 110.833 286.369C110.335 286.54 109.673 286.56 109.185 286.382C104.125 284.538 99.0094 282.817 94.059 280.709C88.6069 278.388 83.2406 275.838 77.9652 273.136C71.1437 269.642 64.6832 265.543 58.4825 261.009C52.4479 256.596 46.8636 251.693 41.805 246.218C38.9267 243.103 36.1539 239.833 33.7644 236.337C31.1552 232.52 28.8768 228.448 26.7602 224.33C24.4667 219.868 22.9072 215.093 22.2778 210.084C21.962 207.572 21.7722 205.026 21.7689 202.495C21.7338 174.904 21.7836 147.313 21.7108 119.722C21.6987 115.134 24.798 111.745 28.8836 110.626C33.0311 109.491 37.1545 108.268 41.291 107.092C47.8477 105.228 54.4048 103.365 60.966 101.517C62.4286 101.105 62.5829 100.816 62.1989 98.9531C61.4328 95.2371 61.6018 91.5048 61.9359 87.7559C62.3473 83.1397 63.6696 78.763 65.8146 74.7265C67.4714 71.6089 69.5667 68.6949 71.7149 65.8799C73.1149 64.0452 74.8878 62.4697 76.6247 60.926C78.3014 59.4358 80.1462 58.1353 81.9811 56.7014C81.8533 56.5495 81.7353 56.3865 81.5949 56.2459C77.0369 51.6812 72.4843 47.111 67.8967 42.5764C67.642 42.3246 67.0478 42.2022 66.6903 42.302C61.6512 43.7092 58.0234 42.4596 55.1867 38.8422C52.4577 35.3622 52.5425 29.9146 55.6632 26.4543C56.381 25.6584 57.2737 25.0207 58.182 24.3014ZM169.069 112.39C166.923 111.795 164.781 111.182 162.63 110.609C145.866 106.14 129.1 101.68 112.337 97.2098C111.241 96.9177 110.21 96.7195 109.029 97.0323C97.8203 100.004 86.5667 102.81 75.3798 105.861C61.9682 109.52 48.6016 113.345 35.232 117.155C31.0595 118.345 29.0807 121.138 29.0806 125.452C29.0803 151.397 29.0657 177.343 29.1077 203.288C29.1111 205.424 29.335 207.591 29.7376 209.689C31.436 218.54 35.5023 226.33 40.7398 233.551C48.8236 244.695 59.151 253.385 70.6941 260.702C82.6056 268.253 95.4006 273.935 108.701 278.535C109.663 278.868 110.495 278.875 111.463 278.558C127.378 273.35 142.306 266.118 156.101 256.614C166.12 249.712 175.136 241.72 182.015 231.55C187.749 223.072 191.362 213.817 191.395 203.472C191.479 177.147 191.425 150.821 191.418 124.496C191.418 124.038 191.359 123.569 191.251 123.123C190.379 119.496 187.746 117.732 184.416 116.764C179.373 115.298 174.32 113.872 169.069 112.39Z" fill="#9E0101"/>
<path d="M169.17 112.41C174.319 113.872 179.373 115.298 184.416 116.764C187.746 117.732 190.379 119.496 191.251 123.123C191.359 123.569 191.418 124.038 191.418 124.496C191.425 150.821 191.479 177.147 191.395 203.472C191.362 213.817 187.749 223.072 182.015 231.55C175.136 241.72 166.12 249.712 156.101 256.614C142.306 266.118 127.378 273.35 111.463 278.558C110.495 278.875 109.663 278.868 108.701 278.535C95.4006 273.935 82.6056 268.253 70.694 260.702C59.1509 253.385 48.8236 244.695 40.7398 233.551C35.5022 226.33 31.436 218.54 29.7376 209.689C29.335 207.591 29.1111 205.424 29.1076 203.288C29.0657 177.343 29.0803 151.397 29.0806 125.452C29.0806 121.138 31.0594 118.345 35.232 117.155C48.6016 113.345 61.9682 109.52 75.3798 105.861C86.5667 102.81 97.8203 100.004 109.029 97.0323C110.21 96.7195 111.241 96.9177 112.337 97.2098C129.1 101.68 145.866 106.139 162.63 110.609C164.781 111.182 166.923 111.795 169.17 112.41ZM76.3819 139.098C72.6356 136.095 68.4034 134.93 63.644 135.666C54.8567 137.026 48.8653 145.701 50.6201 154.555C52.3407 163.235 61.1642 169.01 69.6998 166.953C75.915 165.455 80.0348 161.552 81.6331 155.383C83.2766 149.04 81.4047 143.595 76.3819 139.098ZM166.55 160.532C168.959 156.957 169.874 153.06 169.205 148.775C167.967 140.849 160.784 135.072 152.584 135.458C144.638 135.832 137.964 142.504 137.582 150.457C137.236 157.647 141.447 163.994 148.177 166.431C154.799 168.828 162.071 166.537 166.55 160.532ZM88.7315 205.433C95.3784 202.331 99.002 195.583 97.9 188.358C96.6671 180.275 89.3293 174.428 81.0835 174.957C72.9436 175.48 66.3638 182.397 66.2526 190.548C66.0931 202.236 77.5667 209.937 88.7315 205.433ZM145.93 177.306C142.513 175.279 138.865 174.538 134.915 175.159C126.189 176.533 120.258 185.078 121.915 193.961C123.537 202.661 132.466 208.537 141.044 206.431C147.672 204.803 151.898 200.542 153.163 193.859C154.472 186.94 151.887 181.41 145.93 177.306ZM98.7849 125.06C98.9232 124.663 99.0736 124.27 99.1981 123.868C101.324 117.015 95.3556 110.05 88.3674 111.226C83.6369 112.022 80.1438 115.819 79.916 120.413C79.6823 125.124 82.7229 129.365 87.1933 130.564C91.7985 131.8 96.4767 129.626 98.7849 125.06ZM131.455 130.784C131.661 130.74 131.866 130.696 132.072 130.652C137.029 129.608 140.49 124.727 139.783 119.774C139.031 114.5 134.534 110.826 129.236 111.156C124.233 111.468 120.177 115.812 120.109 120.876C120.033 126.522 124.876 131.535 131.455 130.784ZM57.9079 210.977C57.7617 211.059 57.6139 211.139 57.4696 211.225C53.4489 213.614 51.6463 218.378 53.0892 222.8C54.5306 227.217 58.8313 230.04 63.4357 229.592C68.039 229.144 71.8304 225.428 72.2678 220.776C72.6128 217.105 71.3013 214.041 68.327 211.842C65.1395 209.486 61.6756 209.261 57.9079 210.977ZM160.959 228.902C161.266 228.764 161.586 228.651 161.876 228.485C165.446 226.443 167.314 223.362 167.112 219.245C166.914 215.238 164.856 212.288 161.191 210.702C157.473 209.093 153.914 209.677 150.819 212.319C147.192 215.415 146.387 220.531 148.757 224.711C151.108 228.855 155.955 230.575 160.959 228.902ZM84.284 253.983C84.558 254.178 84.8268 254.38 85.1066 254.566C88.5901 256.878 93.1702 256.735 96.4455 254.215C99.9051 251.554 101.245 247.232 99.8714 243.162C98.5268 239.177 94.7625 236.463 90.5701 236.455C86.5361 236.448 82.8617 238.914 81.3931 242.613C79.7935 246.643 80.7884 250.705 84.284 253.983ZM133.075 255.42C133.45 255.232 133.835 255.061 134.199 254.853C138.46 252.415 140.243 247.008 138.293 242.455C136.312 237.828 131.157 235.409 126.407 236.878C121.02 238.544 118.114 244.095 119.852 249.4C121.636 254.846 127.308 257.493 133.075 255.42Z" fill="#F0F0F0" fill-opacity="0.0588235"/>
<path d="M76.4529 139.154C81.4047 143.595 83.2766 149.039 81.6331 155.383C80.0348 161.552 75.915 165.455 69.6998 166.953C61.1642 169.01 52.3407 163.235 50.6201 154.555C48.8653 145.701 54.8567 137.026 63.644 135.666C68.4034 134.93 72.6356 136.095 76.4529 139.154Z" fill="#9E0101"/>
<path d="M166.495 160.604C162.071 166.537 154.799 168.828 148.177 166.431C141.447 163.994 137.236 157.647 137.582 150.457C137.964 142.504 144.638 135.832 152.584 135.458C160.784 135.072 167.967 140.849 169.205 148.775C169.874 153.06 168.959 156.957 166.495 160.604Z" fill="#9E0101"/>
<path d="M88.6449 205.475C77.5668 209.937 66.0931 202.236 66.2526 190.548C66.3639 182.397 72.9437 175.48 81.0835 174.957C89.3293 174.428 96.6671 180.275 97.9 188.358C99.002 195.583 95.3784 202.331 88.6449 205.475Z" fill="#9E0101"/>
<path d="M146.004 177.361C151.887 181.41 154.472 186.94 153.163 193.859C151.898 200.542 147.672 204.803 141.044 206.431C132.466 208.537 123.537 202.661 121.915 193.961C120.258 185.078 126.189 176.533 134.915 175.159C138.865 174.538 142.513 175.279 146.004 177.361Z" fill="#9E0101"/>
<path d="M98.7345 125.142C96.4767 129.626 91.7985 131.8 87.1933 130.564C82.7229 129.365 79.6823 125.124 79.916 120.413C80.1438 115.819 83.6369 112.022 88.3674 111.226C95.3556 110.05 101.324 117.015 99.1981 123.868C99.0735 124.27 98.9232 124.663 98.7345 125.142Z" fill="#9E0101"/>
<path d="M131.345 130.806C124.876 131.535 120.033 126.522 120.109 120.876C120.177 115.812 124.233 111.468 129.236 111.156C134.534 110.826 139.031 114.5 139.783 119.774C140.49 124.727 137.029 129.608 132.072 130.652C131.866 130.696 131.661 130.74 131.345 130.806Z" fill="#9E0101"/>
<path d="M57.9938 210.936C61.6756 209.261 65.1395 209.486 68.3269 211.842C71.3013 214.041 72.6128 217.105 72.2678 220.776C71.8304 225.428 68.039 229.144 63.4357 229.592C58.8313 230.04 54.5306 227.217 53.0892 222.8C51.6463 218.378 53.4488 213.614 57.4696 211.225C57.6139 211.139 57.7617 211.059 57.9938 210.936Z" fill="#9E0101"/>
<path d="M160.868 228.939C155.955 230.575 151.108 228.855 148.757 224.711C146.387 220.531 147.192 215.415 150.819 212.319C153.914 209.676 157.473 209.093 161.191 210.702C164.856 212.288 166.914 215.238 167.112 219.245C167.314 223.362 165.446 226.443 161.876 228.485C161.586 228.651 161.266 228.764 160.868 228.939Z" fill="#9E0101"/>
<path d="M84.2162 253.923C80.7884 250.705 79.7935 246.643 81.3931 242.613C82.8617 238.914 86.5361 236.448 90.5701 236.455C94.7625 236.463 98.5268 239.177 99.8714 243.162C101.245 247.232 99.9052 251.554 96.4455 254.215C93.1702 256.735 88.5901 256.878 85.1066 254.566C84.8268 254.38 84.558 254.178 84.2162 253.923Z" fill="#9E0101"/>
<path d="M132.983 255.452C127.308 257.493 121.636 254.846 119.852 249.4C118.114 244.095 121.02 238.544 126.407 236.878C131.157 235.409 136.312 237.828 138.293 242.455C140.243 247.008 138.46 252.415 134.199 254.853C133.835 255.061 133.45 255.232 132.983 255.452Z" fill="#9E0101"/>
</svg>
