<svg width="16" height="16" viewBox="0 0 16 16" fill="none" xmlns="http://www.w3.org/2000/svg">
<path d="M4.66699 6.66663V14.6666" stroke="currentColor" stroke-width="1.33333" stroke-linecap="round" stroke-linejoin="round"/>
<path d="M9.99967 3.92004L9.33301 6.66671H13.2197C13.4267 6.66671 13.6308 6.7149 13.816 6.80747C14.0011 6.90004 14.1621 7.03445 14.2863 7.20004C14.4105 7.36564 14.4945 7.55787 14.5315 7.76153C14.5685 7.96518 14.5576 8.17466 14.4997 8.37337L12.9463 13.7067C12.8656 13.9837 12.6971 14.2269 12.4663 14.4C12.2355 14.5731 11.9548 14.6667 11.6663 14.6667H2.66634C2.31272 14.6667 1.97358 14.5262 1.72353 14.2762C1.47348 14.0261 1.33301 13.687 1.33301 13.3334V8.00004C1.33301 7.64642 1.47348 7.30728 1.72353 7.05723C1.97358 6.80718 2.31272 6.66671 2.66634 6.66671H4.50634C4.7544 6.66658 4.9975 6.59725 5.20831 6.46652C5.41912 6.33579 5.58929 6.14885 5.69967 5.92671L7.99967 1.33337C8.31406 1.33727 8.6235 1.41215 8.90488 1.55244C9.18625 1.69272 9.43229 1.89478 9.62461 2.14351C9.81693 2.39224 9.95055 2.68121 10.0155 2.98884C10.0804 3.29647 10.075 3.6148 9.99967 3.92004Z" stroke="currentColor" stroke-width="1.33333" stroke-linecap="round" stroke-linejoin="round"/>
</svg>
