<svg width="16" height="16" viewBox="0 0 16 16" fill="none" xmlns="http://www.w3.org/2000/svg">
<path d="M8 2H3.33333C2.97971 2 2.64057 2.14048 2.39052 2.39052C2.14048 2.64057 2 2.97971 2 3.33333V12.6667C2 13.0203 2.14048 13.3594 2.39052 13.6095C2.64057 13.8595 2.97971 14 3.33333 14H12.6667C13.0203 14 13.3594 13.8595 13.6095 13.6095C13.8595 13.3594 14 13.0203 14 12.6667V8" stroke="current" stroke-width="1.33333" stroke-linecap="round" stroke-linejoin="round"/>
<path d="M12.2507 1.74991C12.5159 1.48469 12.8756 1.33569 13.2507 1.33569C13.6257 1.33569 13.9854 1.48469 14.2507 1.74991C14.5159 2.01512 14.6649 2.37483 14.6649 2.74991C14.6649 3.12498 14.5159 3.48469 14.2507 3.74991L8.00065 9.99991L5.33398 10.6666L6.00065 7.99991L12.2507 1.74991Z" stroke="current" stroke-width="1.33333" stroke-linecap="round" stroke-linejoin="round"/>
</svg>
