<svg width="100%" height="100%" viewBox="0 0 64 64" fill="none" xmlns="http://www.w3.org/2000/svg">
<path d="M53.3332 34.6667C53.3332 48 43.9998 54.6667 32.9065 58.5334C32.3256 58.7302 31.6946 58.7208 31.1198 58.5067C19.9998 54.6667 10.6665 48 10.6665 34.6667V16C10.6665 15.2928 10.9475 14.6145 11.4476 14.1144C11.9477 13.6143 12.6259 13.3334 13.3332 13.3334C18.6665 13.3334 25.3332 10.1334 29.9732 6.08002C30.5381 5.59735 31.2568 5.33215 31.9998 5.33215C32.7429 5.33215 33.4616 5.59735 34.0265 6.08002C38.6932 10.16 45.3332 13.3334 50.6665 13.3334C51.3737 13.3334 52.052 13.6143 52.5521 14.1144C53.0522 14.6145 53.3332 15.2928 53.3332 16V34.6667Z" stroke="current" stroke-width="5.33333" stroke-linecap="round" stroke-linejoin="round"/>
</svg>
