<svg width="16" height="17" viewBox="0 0 16 17" fill="none" xmlns="http://www.w3.org/2000/svg">
<path d="M9.99935 1.53357H3.99935C3.64573 1.53357 3.30659 1.67405 3.05654 1.92409C2.80649 2.17414 2.66602 2.51328 2.66602 2.8669V13.5336C2.66602 13.8872 2.80649 14.2263 3.05654 14.4764C3.30659 14.7264 3.64573 14.8669 3.99935 14.8669H11.9993C12.353 14.8669 12.6921 14.7264 12.9422 14.4764C13.1922 14.2263 13.3327 13.8872 13.3327 13.5336V4.8669L9.99935 1.53357Z" stroke="#DC2626" stroke-width="1.33333" stroke-linecap="round" stroke-linejoin="round"/>
<path d="M9.33398 1.53357V4.20024C9.33398 4.55386 9.47446 4.893 9.72451 5.14305C9.97456 5.39309 10.3137 5.53357 10.6673 5.53357H13.334" stroke="#DC2626" stroke-width="1.33333" stroke-linecap="round" stroke-linejoin="round"/>
<path d="M6.66732 6.2002H5.33398" stroke="#DC2626" stroke-width="1.33333" stroke-linecap="round" stroke-linejoin="round"/>
<path d="M10.6673 8.86682H5.33398" stroke="#DC2626" stroke-width="1.33333" stroke-linecap="round" stroke-linejoin="round"/>
<path d="M10.6673 11.5336H5.33398" stroke="#DC2626" stroke-width="1.33333" stroke-linecap="round" stroke-linejoin="round"/>
</svg>
