<svg width="16" height="17" viewBox="0 0 16 17" fill="none" xmlns="http://www.w3.org/2000/svg">
<path d="M9.99935 2.13354H3.99935C3.64573 2.13354 3.30659 2.27402 3.05654 2.52407C2.80649 2.77412 2.66602 3.11326 2.66602 3.46688V14.1335C2.66602 14.4872 2.80649 14.8263 3.05654 15.0764C3.30659 15.3264 3.64573 15.4669 3.99935 15.4669H11.9993C12.353 15.4669 12.6921 15.3264 12.9422 15.0764C13.1922 14.8263 13.3327 14.4872 13.3327 14.1335V5.46688L9.99935 2.13354Z" stroke="#3B82F6" stroke-width="1.33333" stroke-linecap="round" stroke-linejoin="round"/>
<path d="M9.33398 2.13354V4.80021C9.33398 5.15383 9.47446 5.49297 9.72451 5.74302C9.97456 5.99307 10.3137 6.13355 10.6673 6.13355H13.334" stroke="#3B82F6" stroke-width="1.33333" stroke-linecap="round" stroke-linejoin="round"/>
<path d="M6.66732 6.80017H5.33398" stroke="#3B82F6" stroke-width="1.33333" stroke-linecap="round" stroke-linejoin="round"/>
<path d="M10.6673 9.4668H5.33398" stroke="#3B82F6" stroke-width="1.33333" stroke-linecap="round" stroke-linejoin="round"/>
<path d="M10.6673 12.1335H5.33398" stroke="#3B82F6" stroke-width="1.33333" stroke-linecap="round" stroke-linejoin="round"/>
</svg>
